<mxfile host="65bd71144e">
    <diagram id="gykGrEGpiHCJYPlF1je9" name="Page-1">
        <mxGraphModel dx="692" dy="1412" grid="1" gridSize="10" guides="1" tooltips="1" connect="1" arrows="1" fold="1" page="1" pageScale="1" pageWidth="850" pageHeight="1100" background="#ffffff" math="0" shadow="0">
            <root>
                <mxCell id="0"/>
                <mxCell id="1" parent="0"/>
                <mxCell id="6" value="" style="edgeStyle=none;html=1;fontColor=#000000;labelBackgroundColor=#000000;strokeColor=#000000;" parent="1" source="3" target="4" edge="1">
                    <mxGeometry relative="1" as="geometry"/>
                </mxCell>
                <mxCell id="3" value="&lt;font color=&quot;#000000&quot;&gt;&lt;b&gt;PageLoad&lt;/b&gt;&lt;/font&gt;" style="strokeWidth=2;html=1;shape=mxgraph.flowchart.terminator;whiteSpace=wrap;fillColor=#FFF2CC;shadow=0;sketch=0;" parent="1" vertex="1">
                    <mxGeometry x="20" y="-1060" width="100" height="60" as="geometry"/>
                </mxCell>
                <mxCell id="10" value="" style="edgeStyle=none;html=1;labelBackgroundColor=#000000;fontColor=#000000;strokeColor=#000000;" parent="1" source="4" target="9" edge="1">
                    <mxGeometry relative="1" as="geometry"/>
                </mxCell>
                <mxCell id="4" value="&lt;font color=&quot;#000000&quot;&gt;&lt;b&gt;Load search results in four themes&lt;/b&gt;&lt;/font&gt;" style="rounded=1;whiteSpace=wrap;html=1;absoluteArcSize=1;arcSize=14;strokeWidth=2;shadow=0;sketch=0;fillColor=#ffcccc;strokeColor=none;" parent="1" vertex="1">
                    <mxGeometry x="160" y="-1060" width="100" height="60" as="geometry"/>
                </mxCell>
                <mxCell id="5" value="&lt;b&gt;&lt;font color=&quot;#ff3333&quot;&gt;Async&lt;/font&gt;&lt;/b&gt;" style="text;html=1;align=center;verticalAlign=middle;resizable=0;points=[];autosize=1;strokeColor=none;fillColor=none;fontColor=#000000;" parent="1" vertex="1">
                    <mxGeometry x="185" y="-1080" width="50" height="20" as="geometry"/>
                </mxCell>
                <mxCell id="9" value="&lt;b&gt;Render on main section&lt;/b&gt;" style="strokeWidth=2;html=1;shape=mxgraph.flowchart.multi-document;whiteSpace=wrap;shadow=0;sketch=0;fontColor=#000000;fillColor=#d5e8d4;" parent="1" vertex="1">
                    <mxGeometry x="310" y="-1060" width="88" height="60" as="geometry"/>
                </mxCell>
                <mxCell id="14" value="" style="edgeStyle=none;html=1;labelBackgroundColor=#000000;fontColor=#FF3333;strokeColor=#000000;" parent="1" source="11" target="12" edge="1">
                    <mxGeometry relative="1" as="geometry"/>
                </mxCell>
                <mxCell id="11" value="&lt;font color=&quot;#000000&quot;&gt;&lt;b&gt;User click search&lt;/b&gt;&lt;/font&gt;" style="strokeWidth=2;html=1;shape=mxgraph.flowchart.terminator;whiteSpace=wrap;fillColor=#FFF2CC;shadow=0;sketch=0;" parent="1" vertex="1">
                    <mxGeometry x="20" y="-960" width="100" height="60" as="geometry"/>
                </mxCell>
                <mxCell id="28" style="edgeStyle=none;html=1;exitX=1;exitY=0.5;exitDx=0;exitDy=0;strokeColor=#000000;" parent="1" source="12" edge="1">
                    <mxGeometry relative="1" as="geometry">
                        <mxPoint x="300" y="-929.8571428571429" as="targetPoint"/>
                    </mxGeometry>
                </mxCell>
                <mxCell id="12" value="&lt;font color=&quot;#000000&quot;&gt;&lt;b&gt;Load search results by keyword and city&lt;/b&gt;&lt;/font&gt;" style="rounded=1;whiteSpace=wrap;html=1;absoluteArcSize=1;arcSize=14;strokeWidth=2;shadow=0;sketch=0;fillColor=#ffcccc;strokeColor=none;" parent="1" vertex="1">
                    <mxGeometry x="160" y="-960" width="100" height="60" as="geometry"/>
                </mxCell>
                <mxCell id="35" style="edgeStyle=none;html=1;entryX=0;entryY=0.5;entryDx=0;entryDy=0;entryPerimeter=0;strokeColor=#000000;dashed=1;" parent="1" source="13" target="34" edge="1">
                    <mxGeometry relative="1" as="geometry"/>
                </mxCell>
                <mxCell id="58" style="edgeStyle=none;html=1;exitX=0.5;exitY=0;exitDx=0;exitDy=0;exitPerimeter=0;entryX=0.5;entryY=1;entryDx=0;entryDy=0;entryPerimeter=0;strokeColor=#000000;dashed=1;" edge="1" parent="1" source="13" target="45">
                    <mxGeometry relative="1" as="geometry"/>
                </mxCell>
                <mxCell id="13" value="&lt;b&gt;Render&amp;nbsp;&lt;br&gt;card deck&lt;br&gt;&lt;/b&gt;" style="strokeWidth=2;html=1;shape=mxgraph.flowchart.multi-document;whiteSpace=wrap;shadow=0;sketch=0;fontColor=#000000;fillColor=#d5e8d4;" parent="1" vertex="1">
                    <mxGeometry x="450" y="-960" width="88" height="60" as="geometry"/>
                </mxCell>
                <mxCell id="16" value="&lt;b&gt;&lt;font color=&quot;#ff3333&quot;&gt;Async&lt;/font&gt;&lt;/b&gt;" style="text;html=1;align=center;verticalAlign=middle;resizable=0;points=[];autosize=1;strokeColor=none;fillColor=none;fontColor=#000000;" parent="1" vertex="1">
                    <mxGeometry x="185" y="-980" width="50" height="20" as="geometry"/>
                </mxCell>
                <mxCell id="20" value="" style="edgeStyle=none;html=1;" parent="1" source="17" target="13" edge="1">
                    <mxGeometry relative="1" as="geometry"/>
                </mxCell>
                <mxCell id="33" style="edgeStyle=none;html=1;strokeColor=#000000;" parent="1" source="17" edge="1">
                    <mxGeometry relative="1" as="geometry">
                        <mxPoint x="494" y="-900" as="targetPoint"/>
                    </mxGeometry>
                </mxCell>
                <mxCell id="17" value="&lt;font color=&quot;#000000&quot;&gt;&lt;b&gt;User click on return&lt;/b&gt;&lt;/font&gt;" style="strokeWidth=2;html=1;shape=mxgraph.flowchart.terminator;whiteSpace=wrap;fillColor=#FFF2CC;shadow=0;sketch=0;" parent="1" vertex="1">
                    <mxGeometry x="444" y="-840" width="100" height="60" as="geometry"/>
                </mxCell>
                <mxCell id="24" value="" style="edgeStyle=none;html=1;" parent="1" source="18" target="13" edge="1">
                    <mxGeometry relative="1" as="geometry"/>
                </mxCell>
                <mxCell id="29" style="edgeStyle=none;html=1;exitX=1;exitY=0.5;exitDx=0;exitDy=0;" parent="1" source="18" edge="1">
                    <mxGeometry relative="1" as="geometry">
                        <mxPoint x="450" y="-930.1666666666666" as="targetPoint"/>
                    </mxGeometry>
                </mxCell>
                <mxCell id="18" value="&lt;font color=&quot;#000000&quot;&gt;&lt;b&gt;Preload the images&lt;/b&gt;&lt;/font&gt;" style="rounded=1;whiteSpace=wrap;html=1;absoluteArcSize=1;arcSize=14;strokeWidth=2;shadow=0;sketch=0;fillColor=#ffcccc;strokeColor=none;" parent="1" vertex="1">
                    <mxGeometry x="304" y="-960" width="100" height="60" as="geometry"/>
                </mxCell>
                <mxCell id="19" value="&lt;b&gt;&lt;font color=&quot;#ff3333&quot;&gt;Async&lt;/font&gt;&lt;/b&gt;" style="text;html=1;align=center;verticalAlign=middle;resizable=0;points=[];autosize=1;strokeColor=none;fillColor=none;fontColor=#000000;" parent="1" vertex="1">
                    <mxGeometry x="329" y="-980" width="50" height="20" as="geometry"/>
                </mxCell>
                <mxCell id="31" value="" style="edgeStyle=none;html=1;labelBackgroundColor=#000000;fontColor=#FF3333;strokeColor=#000000;entryX=0;entryY=0.5;entryDx=0;entryDy=0;entryPerimeter=0;" parent="1" target="13" edge="1">
                    <mxGeometry relative="1" as="geometry">
                        <mxPoint x="404" y="-930.42" as="sourcePoint"/>
                        <mxPoint x="443.9999999999999" y="-930.42" as="targetPoint"/>
                    </mxGeometry>
                </mxCell>
                <mxCell id="38" style="edgeStyle=none;html=1;exitX=1;exitY=0.5;exitDx=0;exitDy=0;exitPerimeter=0;entryX=0;entryY=0.5;entryDx=0;entryDy=0;strokeColor=#000000;" parent="1" source="34" target="37" edge="1">
                    <mxGeometry relative="1" as="geometry"/>
                </mxCell>
                <mxCell id="34" value="&lt;font color=&quot;#000000&quot;&gt;&lt;b&gt;User clicks on card(hash change)&lt;/b&gt;&lt;/font&gt;" style="strokeWidth=2;html=1;shape=mxgraph.flowchart.terminator;whiteSpace=wrap;fillColor=#FFF2CC;shadow=0;sketch=0;" parent="1" vertex="1">
                    <mxGeometry x="584" y="-960" width="100" height="60" as="geometry"/>
                </mxCell>
                <mxCell id="36" value="&lt;b&gt;Bind handler&lt;/b&gt;" style="text;html=1;align=center;verticalAlign=middle;resizable=0;points=[];autosize=1;strokeColor=none;fillColor=none;fontColor=#000000;" parent="1" vertex="1">
                    <mxGeometry x="519" y="-900" width="90" height="20" as="geometry"/>
                </mxCell>
                <mxCell id="41" style="edgeStyle=none;html=1;exitX=1;exitY=0.5;exitDx=0;exitDy=0;entryX=0;entryY=0.5;entryDx=0;entryDy=0;entryPerimeter=0;strokeColor=#000000;" parent="1" source="37" target="39" edge="1">
                    <mxGeometry relative="1" as="geometry"/>
                </mxCell>
                <mxCell id="37" value="&lt;font color=&quot;#000000&quot;&gt;&lt;b&gt;Load the details&lt;/b&gt;&lt;/font&gt;" style="rounded=1;whiteSpace=wrap;html=1;absoluteArcSize=1;arcSize=14;strokeWidth=2;shadow=0;sketch=0;fillColor=#ffcccc;strokeColor=none;" parent="1" vertex="1">
                    <mxGeometry x="734" y="-960" width="100" height="60" as="geometry"/>
                </mxCell>
                <mxCell id="42" style="edgeStyle=none;html=1;exitX=0.5;exitY=0.88;exitDx=0;exitDy=0;exitPerimeter=0;strokeColor=#000000;entryX=1;entryY=0.5;entryDx=0;entryDy=0;entryPerimeter=0;dashed=1;" parent="1" source="39" target="17" edge="1">
                    <mxGeometry relative="1" as="geometry">
                        <mxPoint x="984.2941176470588" y="-800.0000000000001" as="targetPoint"/>
                        <Array as="points">
                            <mxPoint x="940" y="-810"/>
                        </Array>
                    </mxGeometry>
                </mxCell>
                <mxCell id="39" value="&lt;b&gt;Render&lt;br&gt;card details&lt;br&gt;&lt;/b&gt;" style="strokeWidth=2;html=1;shape=mxgraph.flowchart.multi-document;whiteSpace=wrap;shadow=0;sketch=0;fontColor=#000000;fillColor=#d5e8d4;" parent="1" vertex="1">
                    <mxGeometry x="894" y="-960" width="88" height="60" as="geometry"/>
                </mxCell>
                <mxCell id="44" value="&lt;b&gt;Bind handler&lt;/b&gt;" style="text;html=1;align=center;verticalAlign=middle;resizable=0;points=[];autosize=1;strokeColor=none;fillColor=none;fontColor=#000000;" parent="1" vertex="1">
                    <mxGeometry x="700" y="-805" width="90" height="20" as="geometry"/>
                </mxCell>
                <mxCell id="53" style="edgeStyle=none;html=1;exitX=1;exitY=0.5;exitDx=0;exitDy=0;exitPerimeter=0;entryX=0;entryY=0.5;entryDx=0;entryDy=0;strokeColor=#000000;" edge="1" parent="1" source="45" target="46">
                    <mxGeometry relative="1" as="geometry"/>
                </mxCell>
                <mxCell id="45" value="&lt;font color=&quot;#000000&quot;&gt;&lt;b&gt;User click read more button&lt;/b&gt;&lt;/font&gt;" style="strokeWidth=2;html=1;shape=mxgraph.flowchart.terminator;whiteSpace=wrap;fillColor=#FFF2CC;shadow=0;sketch=0;" vertex="1" parent="1">
                    <mxGeometry x="444" y="-1060" width="100" height="60" as="geometry"/>
                </mxCell>
                <mxCell id="54" style="edgeStyle=none;html=1;exitX=1;exitY=0.5;exitDx=0;exitDy=0;entryX=0;entryY=0.5;entryDx=0;entryDy=0;strokeColor=#000000;" edge="1" parent="1" source="46" target="48">
                    <mxGeometry relative="1" as="geometry"/>
                </mxCell>
                <mxCell id="46" value="&lt;font color=&quot;#000000&quot;&gt;&lt;b&gt;Load more&lt;/b&gt;&lt;/font&gt;" style="rounded=1;whiteSpace=wrap;html=1;absoluteArcSize=1;arcSize=14;strokeWidth=2;shadow=0;sketch=0;fillColor=#ffcccc;strokeColor=none;" vertex="1" parent="1">
                    <mxGeometry x="584" y="-1060" width="100" height="60" as="geometry"/>
                </mxCell>
                <mxCell id="47" value="&lt;b&gt;&lt;font color=&quot;#ff3333&quot;&gt;Async&lt;/font&gt;&lt;/b&gt;" style="text;html=1;align=center;verticalAlign=middle;resizable=0;points=[];autosize=1;strokeColor=none;fillColor=none;fontColor=#000000;" vertex="1" parent="1">
                    <mxGeometry x="609" y="-1080" width="50" height="20" as="geometry"/>
                </mxCell>
                <mxCell id="55" style="edgeStyle=none;html=1;exitX=1;exitY=0.5;exitDx=0;exitDy=0;entryX=0;entryY=0.5;entryDx=0;entryDy=0;entryPerimeter=0;strokeColor=#000000;" edge="1" parent="1" source="48" target="51">
                    <mxGeometry relative="1" as="geometry"/>
                </mxCell>
                <mxCell id="48" value="&lt;font color=&quot;#000000&quot;&gt;&lt;b&gt;Preload the images&lt;/b&gt;&lt;/font&gt;" style="rounded=1;whiteSpace=wrap;html=1;absoluteArcSize=1;arcSize=14;strokeWidth=2;shadow=0;sketch=0;fillColor=#ffcccc;strokeColor=none;" vertex="1" parent="1">
                    <mxGeometry x="728" y="-1060" width="100" height="60" as="geometry"/>
                </mxCell>
                <mxCell id="49" value="&lt;b&gt;&lt;font color=&quot;#ff3333&quot;&gt;Async&lt;/font&gt;&lt;/b&gt;" style="text;html=1;align=center;verticalAlign=middle;resizable=0;points=[];autosize=1;strokeColor=none;fillColor=none;fontColor=#000000;" vertex="1" parent="1">
                    <mxGeometry x="753" y="-1080" width="50" height="20" as="geometry"/>
                </mxCell>
                <mxCell id="56" style="edgeStyle=none;html=1;exitX=1;exitY=0.5;exitDx=0;exitDy=0;exitPerimeter=0;entryX=0;entryY=0.5;entryDx=0;entryDy=0;entryPerimeter=0;strokeColor=#000000;" edge="1" parent="1" source="51" target="52">
                    <mxGeometry relative="1" as="geometry"/>
                </mxCell>
                <mxCell id="51" value="&lt;b&gt;Render&amp;nbsp;&lt;br&gt;more&lt;br&gt;&lt;/b&gt;" style="strokeWidth=2;html=1;shape=mxgraph.flowchart.multi-document;whiteSpace=wrap;shadow=0;sketch=0;fontColor=#000000;fillColor=#d5e8d4;" vertex="1" parent="1">
                    <mxGeometry x="874" y="-1060" width="88" height="60" as="geometry"/>
                </mxCell>
                <mxCell id="52" value="&lt;b&gt;Render read more button&lt;br&gt;&lt;/b&gt;" style="strokeWidth=2;html=1;shape=mxgraph.flowchart.multi-document;whiteSpace=wrap;shadow=0;sketch=0;fontColor=#000000;fillColor=#d5e8d4;" vertex="1" parent="1">
                    <mxGeometry x="1004" y="-1060" width="88" height="60" as="geometry"/>
                </mxCell>
                <mxCell id="59" value="&lt;b&gt;Bind handler&lt;/b&gt;" style="text;html=1;align=center;verticalAlign=middle;resizable=0;points=[];autosize=1;strokeColor=none;fillColor=none;fontColor=#000000;" vertex="1" parent="1">
                    <mxGeometry x="500" y="-990" width="90" height="20" as="geometry"/>
                </mxCell>
            </root>
        </mxGraphModel>
    </diagram>
</mxfile>